<svg width="14" height="13" viewBox="0 0 14 13" fill="none" xmlns="http://www.w3.org/2000/svg">
<path d="M13.189 4.61491L9.22178 4.02813L7.44834 0.369118C7.39991 0.268937 7.32022 0.187837 7.22178 0.138542C6.97491 0.0145072 6.67491 0.117869 6.55147 0.369118L4.77803 4.02813L0.810845 4.61491C0.70147 4.63081 0.60147 4.68329 0.524907 4.7628C0.432347 4.85962 0.381343 4.98987 0.383101 5.12495C0.384859 5.26002 0.439235 5.38886 0.534282 5.48315L3.40459 8.33117L2.72647 12.3527C2.71057 12.4463 2.72074 12.5425 2.75583 12.6305C2.79093 12.7184 2.84953 12.7946 2.92501 12.8504C3.00049 12.9062 3.08982 12.9394 3.18288 12.9461C3.27593 12.9529 3.36898 12.933 3.45147 12.8886L6.99991 10.99L10.5483 12.8886C10.6452 12.9411 10.7577 12.9586 10.8655 12.9395C11.1374 12.8918 11.3202 12.6294 11.2733 12.3527L10.5952 8.33117L13.4655 5.48315C13.5437 5.40523 13.5952 5.30346 13.6108 5.19215C13.653 4.91386 13.4624 4.65625 13.189 4.61491Z" fill="#FEA250"/>
</svg>
