<svg width="25" height="24" viewBox="0 0 25 24" fill="none" xmlns="http://www.w3.org/2000/svg">
<path d="M10.6307 16.73C10.4977 16.7303 10.3659 16.7046 10.2429 16.6545C10.1199 16.6044 10.0081 16.5308 9.914 16.438L5.61347 12.195C5.51658 12.1028 5.43927 11.9925 5.38605 11.8706C5.33283 11.7486 5.30478 11.6174 5.30351 11.4846C5.30225 11.3518 5.3278 11.2201 5.37869 11.0972C5.42958 10.9743 5.50477 10.8626 5.59989 10.7686C5.69501 10.6747 5.80815 10.6003 5.93271 10.55C6.05726 10.4996 6.19074 10.4742 6.32535 10.4753C6.45996 10.4763 6.59301 10.5038 6.71673 10.5561C6.84046 10.6085 6.95238 10.6846 7.04597 10.78L10.6297 14.315L17.0825 7.952C17.2726 7.76436 17.5305 7.65889 17.7994 7.6588C18.0684 7.6587 18.3263 7.76399 18.5166 7.9515C18.7068 8.13901 18.8137 8.39338 18.8138 8.65865C18.8139 8.92392 18.7072 9.17836 18.5171 9.366L11.3475 16.438C11.2534 16.5308 11.1416 16.6044 11.0186 16.6545C10.8956 16.7046 10.7638 16.7303 10.6307 16.73Z" fill="#2FAB73"/>
</svg>
