<svg width="25" height="22" viewBox="0 0 25 22" fill="none" xmlns="http://www.w3.org/2000/svg">
<path d="M10.7206 14.9365C10.5875 14.9367 10.4557 14.9146 10.3327 14.8714C10.2097 14.8283 10.0979 14.7649 10.0038 14.6849L5.70332 11.0298C5.60642 10.9504 5.52911 10.8554 5.4759 10.7504C5.42268 10.6453 5.39462 10.5323 5.39336 10.4179C5.39209 10.3035 5.41765 10.1901 5.46853 10.0842C5.51942 9.97827 5.59462 9.88205 5.68974 9.80111C5.78486 9.72017 5.898 9.65614 6.02255 9.61275C6.1471 9.56936 6.28058 9.54748 6.41519 9.54839C6.5498 9.54931 6.68285 9.57299 6.80658 9.61806C6.9303 9.66313 7.04222 9.72869 7.13581 9.81091L10.7196 12.8561L17.1724 7.37475C17.3625 7.21311 17.6204 7.12226 17.8893 7.12218C18.1582 7.1221 18.4162 7.2128 18.6064 7.37432C18.7966 7.53585 18.9036 7.75497 18.9037 7.98349C18.9038 8.212 18.797 8.43119 18.6069 8.59283L11.4373 14.6849C11.3432 14.7649 11.2315 14.8283 11.1085 14.8714C10.9855 14.9146 10.8537 14.9367 10.7206 14.9365Z" fill="#2FAB73"/>
</svg>
